{"title":"The Adventures of Robin Hood(1938)MP-4[DaScubaDude]","uid":12588106,"size":1248028920,"categoryP":"video","categoryS":"movies","magnet":"?xt=urn:btih:6c9c92819a202876d3291210880a4cf8abeeb4ec&amp;dn=The+Adventures+of+Robin+Hood%281938%29MP-4%5BDaScubaDude%5D&amp;tr=udp%3A%2F%2Ftracker.leechers-paradise.org%3A6969&amp;tr=udp%3A%2F%2Fzer0day.ch%3A1337&amp;tr=udp%3A%2F%2Fopen.demonii.com%3A1337&amp;tr=udp%3A%2F%2Ftracker.coppersurfer.tk%3A6969&amp;tr=udp%3A%2F%2Fexodus.desync.com%3A6969","seeders":0,"leechers":0,"uploader":"dascuba","files":1,"time":1445055210,"description":"The Adventures of Robin Hood (1938)\r\nPG  |  102 min  |  Action, Adventure, Romance  |  14 May 1938 (USA)\r\n8.0 Your rating:   -/10   Ratings: 8.0/10 from 37,120 users   Metascore: 97/100 \r\nReviews: 225 user | 100 critic | 5 from Metacritic.com\r\nWhen Prince John and the Norman Lords begin oppressing the Saxon masses in King Richard's absence, a Saxon lord fights back as the outlaw leader of a rebel guerrilla army.\r\n\r\nDirectors: Michael Curtiz, William Keighley\r\nWriters: Norman Reilly Raine (original screenplay: based upon ancient Robin Hood legends), Seton I. Miller (original screenplay: based upon ancient Robin Hood legends), 1 more credit »\r\nStars: Errol Flynn, Olivia de Havilland, Basil Rathbone\r\n\r\nGeneral\r\nComplete name                            : C:The Adventures of Robin HoodADVENTURES_OF_ROBIN_HOOD_DISC1_Title1.mp4\r\nFormat                                   : MPEG-4\r\nFormat profile                           : Base Media\r\nCodec ID                                 : isom\r\nFile size                                : 1.16 GiB\r\nDuration                                 : 1h 41mn\r\nOverall bit rate mode                    : Constant\r\nOverall bit rate                         : 1 634 Kbps\r\nMovie name                               : ADVENTURES_OF_ROBIN_HOOD_DISC1\r\nGenre                                    : Adventure\r\nWriting application                      : Lavf54.6.100\r\n\r\nVideo\r\nID                                       : 1\r\nFormat                                   : MPEG-4 Visual\r\nFormat settings, BVOP                    : No\r\nFormat settings, QPel                    : No\r\nFormat settings, GMC                     : No warppoints\r\nFormat settings, Matrix                  : Default (H.263)\r\nCodec ID                                 : 20\r\nDuration                                 : 1h 41mn\r\nBit rate mode                            : Constant\r\nBit rate                                 : 1 500 Kbps\r\nWidth                                    : 720 pixels\r\nHeight                                   : 540 pixels\r\nDisplay aspect ratio                     : 4:3\r\nFrame rate mode                          : Constant\r\nFrame rate                               : 29.970 fps\r\nColor space                              : YUV\r\nChroma subsampling                       : 4:2:0\r\nBit depth                                : 8 bits\r\nScan type                                : Progressive\r\nCompression mode                         : Lossy\r\nBits/(Pixel*Frame)                       : 0.129\r\nStream size                              : 1.07 GiB (92%)\r\nWriting library                          : Lavc54.23.100\r\n\r\nAudio\r\nID                                       : 2\r\nFormat                                   : MPEG Audio\r\nFormat version                           : Version 1\r\nFormat profile                           : Layer 3\r\nCodec ID                                 : 6B\r\nDuration                                 : 1h 41mn\r\nBit rate mode                            : Constant\r\nBit rate                                 : 128 Kbps\r\nChannel(s)                               : 2 channels\r\nChannel(s)_Original                      : 1 channel\r\nSampling rate                            : 44.1 KHz\r\nCompression mode                         : Lossy\r\nStream size                              : 93.2 MiB (8%)\r\nWriting library                          : LAME","torrent":{"xt":"urn:btih:6c9c92819a202876d3291210880a4cf8abeeb4ec","amp;dn":"The+Adventures+of+Robin+Hood%281938%29MP-4%5BDaScubaDude%5D","amp;tr":["udp%3A%2F%2Ftracker.leechers-paradise.org%3A6969","udp%3A%2F%2Fzer0day.ch%3A1337","udp%3A%2F%2Fopen.demonii.com%3A1337","udp%3A%2F%2Ftracker.coppersurfer.tk%3A6969","udp%3A%2F%2Fexodus.desync.com%3A6969"],"infoHash":"6c9c92819a202876d3291210880a4cf8abeeb4ec","infoHashBuffer":{"type":"Buffer","data":[108,156,146,129,154,32,40,118,211,41,18,16,136,10,76,248,171,238,180,236]},"announce":[],"urlList":[]}}